{
  "accessors": [
    {
      "bufferView": 2,
      "componentType": 5126,
      "count": 1984,
      "max": [
        0.9999997019767761,
        1.4497461318969727,
        1.0075865983963013
      ],
      "min": [
        -1.0033025741577148,
        -0.9971314072608948,
        -0.9999987483024597
      ],
      "type": "VEC3"
    },
    {
      "bufferView": 2,
      "byteOffset": 23808,
      "componentType": 5126,
      "count": 1984,
      "max": [
        0.991007924079895,
        0.9615488648414612,
        0.994957685470581
      ],
      "min": [
        -0.9931105375289917,
        -0.9950091242790222,
        -0.9910083413124084
      ],
      "type": "VEC3"
    },
    {
      "bufferView": 1,
      "componentType": 5126,
      "count": 1984,
      "max": [
        1.0000001192092896,
        1.0
      ],
      "min": [
        0.0,
        0.0
      ],
      "type": "VEC2"
    },
    {
      "bufferView": 0,
      "componentType": 5125,
      "count": 2880,
      "type": "SCALAR"
    },
    {
      "bufferView": 2,
      "byteOffset": 47616,
      "componentType": 5126,
      "count": 2145,
      "max": [
        0.8986584544181824,
        1.7755581140518188,
        0.8986584544181824
      ],
      "min": [
        -0.8986584544181824,
        -1.5704723596572876,
        -0.8986584544181824
      ],
      "type": "VEC3"
    },
    {
      "bufferView": 2,
      "byteOffset": 73356,
      "componentType": 5126,
      "count": 2145,
      "max": [
        1.0,
        0.6489065885543823,
        1.0
      ],
      "min": [
        -1.0,
        -0.8392994403839111,
        -1.0
      ],
      "type": "VEC3"
    },
    {
      "bufferView": 1,
      "byteOffset": 15872,
      "componentType": 5126,
      "count": 2145,
      "max": [
        0.9977920055389404,
        0.9936918020248413
      ],
      "min": [
        0.00314983818680048,
        0.006389896851032972
      ],
      "type": "VEC2"
    },
    {
      "bufferView": 0,
      "byteOffset": 11520,
      "componentType": 5125,
      "count": 12288,
      "type": "SCALAR"
    },
    {
      "bufferView": 2,
      "byteOffset": 99096,
      "componentType": 5126,
      "count": 3347,
      "max": [
        0.8986027836799622,
        1.8705439567565918,
        0.8986027836799622
      ],
      "min": [
        -0.8986027836799622,
        -1.8698652982711792,
        -0.8986027836799622
      ],
      "type": "VEC3"
    },
    {
      "bufferView": 2,
      "byteOffset": 139260,
      "componentType": 5126,
      "count": 3347,
      "max": [
        0.9999936819076538,
        0.9999397993087769,
        0.9999936819076538
      ],
      "min": [
        -0.9999936819076538,
        -0.9999901056289673,
        -0.9999936819076538
      ],
      "type": "VEC3"
    },
    {
      "bufferView": 1,
      "byteOffset": 33032,
      "componentType": 5126,
      "count": 3347,
      "max": [
        1.0,
        1.8705617189407349
      ],
      "min": [
        0.0,
        -1.8698652982711792
      ],
      "type": "VEC2"
    },
    {
      "bufferView": 0,
      "byteOffset": 60672,
      "componentType": 5125,
      "count": 18624,
      "type": "SCALAR"
    },
    {
      "bufferView": 2,
      "byteOffset": 179424,
      "componentType": 5126,
      "count": 6517,
      "max": [
        0.658027172088623,
        1.815712571144104,
        0.658027172088623
      ],
      "min": [
        -0.658027172088623,
        1.7815792560577393,
        -0.658027172088623
      ],
      "type": "VEC3"
    },
    {
      "bufferView": 2,
      "byteOffset": 257628,
      "componentType": 5126,
      "count": 6517,
      "max": [
        0.9628583192825317,
        1.0,
        0.962858259677887
      ],
      "min": [
        -0.962858259677887,
        0.26582077145576477,
        -0.9628583192825317
      ],
      "type": "VEC3"
    },
    {
      "bufferView": 1,
      "byteOffset": 59808,
      "componentType": 5126,
      "count": 6517,
      "max": [
        0.0,
        0.0
      ],
      "min": [
        0.0,
        0.0
      ],
      "type": "VEC2"
    },
    {
      "bufferView": 0,
      "byteOffset": 135168,
      "componentType": 5125,
      "count": 10188,
      "type": "SCALAR"
    },
    {
      "bufferView": 2,
      "byteOffset": 335832,
      "componentType": 5126,
      "count": 7968,
      "max": [
        0.19754250347614288,
        1.892386555671692,
        0.19983099400997162
      ],
      "min": [
        -0.19754250347614288,
        1.7759686708450317,
        -0.43477436900138855
      ],
      "type": "VEC3"
    },
    {
      "bufferView": 2,
      "byteOffset": 431448,
      "componentType": 5126,
      "count": 7968,
      "max": [
        0.994236171245575,
        0.9999434947967529,
        0.9981882572174072
      ],
      "min": [
        -0.9942363500595093,
        -0.9999434351921082,
        -0.9977114796638489
      ],
      "type": "VEC3"
    },
    {
      "bufferView": 1,
      "byteOffset": 111944,
      "componentType": 5126,
      "count": 7968,
      "max": [
        1.0000001192092896,
        1.0000001192092896
      ],
      "min": [
        0.0,
        0.0
      ],
      "type": "VEC2"
    },
    {
      "bufferView": 0,
      "byteOffset": 175920,
      "componentType": 5125,
      "count": 11952,
      "type": "SCALAR"
    },
    {
      "bufferView": 2,
      "byteOffset": 527064,
      "componentType": 5126,
      "count": 1792,
      "max": [
        0.0611298568546772,
        1.8267872333526611,
        0.0639469176530838
      ],
      "min": [
        -0.0611298568546772,
        1.8155279159545898,
        -0.0583127997815609
      ],
      "type": "VEC3"
    },
    {
      "bufferView": 2,
      "byteOffset": 548568,
      "componentType": 5126,
      "count": 1792,
      "max": [
        0.9685206413269043,
        0.999838650226593,
        0.9685221314430237
      ],
      "min": [
        -0.9685202836990356,
        -0.9998316168785095,
        -0.96852046251297
      ],
      "type": "VEC3"
    },
    {
      "bufferView": 1,
      "byteOffset": 175688,
      "componentType": 5126,
      "count": 1792,
      "max": [
        0.0,
        0.0
      ],
      "min": [
        0.0,
        0.0
      ],
      "type": "VEC2"
    },
    {
      "bufferView": 0,
      "byteOffset": 223728,
      "componentType": 5125,
      "count": 2688,
      "type": "SCALAR"
    }
  ],
  "asset": {
    "extras": {
      "author": "L4P (https://sketchfab.com/L4P)",
      "license": "CC-BY-4.0 (http://creativecommons.org/licenses/by/4.0/)",
      "source": "https://sketchfab.com/3d-models/soda-can-71669f5079874f8e95d27bbdaca0e4cc",
      "title": "Soda Can"
    },
    "generator": "Sketchfab-12.67.0",
    "version": "2.0"
  },
  "bufferViews": [
    {
      "buffer": 0,
      "byteLength": 234480,
      "name": "floatBufferViews",
      "target": 34963
    },
    {
      "buffer": 0,
      "byteLength": 190024,
      "byteOffset": 234480,
      "byteStride": 8,
      "name": "floatBufferViews",
      "target": 34962
    },
    {
      "buffer": 0,
      "byteLength": 570072,
      "byteOffset": 424504,
      "byteStride": 12,
      "name": "floatBufferViews",
      "target": 34962
    }
  ],
  "buffers": [
    {
      "byteLength": 994576,
      "uri": "scene.bin"
    }
  ],
  "images": [
    {
      "uri": "textures/Material.001_baseColor.png"
    }
  ],
  "materials": [
    {
      "doubleSided": true,
      "name": "Material.006"
    },
    {
      "doubleSided": true,
      "name": "Material.001",
      "pbrMetallicRoughness": {
        "baseColorTexture": {
          "index": 0
        },
        "roughnessFactor": 0.159091
      }
    },
    {
      "doubleSided": true,
      "name": "Material.002",
      "pbrMetallicRoughness": {
        "baseColorFactor": [
          0.8,
          0.8,
          0.8,
          1.0
        ],
        "roughnessFactor": 0.28
      }
    },
    {
      "doubleSided": true,
      "name": "Material.003",
      "pbrMetallicRoughness": {
        "baseColorFactor": [
          0.8,
          0.8,
          0.8,
          1.0
        ],
        "roughnessFactor": 0.28
      }
    },
    {
      "doubleSided": true,
      "name": "Material.004",
      "pbrMetallicRoughness": {
        "baseColorFactor": [
          0.8,
          0.8,
          0.8,
          1.0
        ],
        "roughnessFactor": 0.28
      }
    },
    {
      "doubleSided": true,
      "name": "Material.005",
      "pbrMetallicRoughness": {
        "baseColorFactor": [
          0.8,
          0.8,
          0.8,
          1.0
        ],
        "roughnessFactor": 0.28
      }
    }
  ],
  "meshes": [
    {
      "name": "Object_0",
      "primitives": [
        {
          "attributes": {
            "NORMAL": 1,
            "POSITION": 0,
            "TEXCOORD_0": 2
          },
          "indices": 3,
          "material": 0,
          "mode": 4
        }
      ]
    },
    {
      "name": "Object_1",
      "primitives": [
        {
          "attributes": {
            "NORMAL": 5,
            "POSITION": 4,
            "TEXCOORD_0": 6
          },
          "indices": 7,
          "material": 1,
          "mode": 4
        }
      ]
    },
    {
      "name": "Object_2",
      "primitives": [
        {
          "attributes": {
            "NORMAL": 9,
            "POSITION": 8,
            "TEXCOORD_0": 10
          },
          "indices": 11,
          "material": 2,
          "mode": 4
        }
      ]
    },
    {
      "name": "Object_3",
      "primitives": [
        {
          "attributes": {
            "NORMAL": 13,
            "POSITION": 12,
            "TEXCOORD_0": 14
          },
          "indices": 15,
          "material": 3,
          "mode": 4
        }
      ]
    },
    {
      "name": "Object_4",
      "primitives": [
        {
          "attributes": {
            "NORMAL": 17,
            "POSITION": 16,
            "TEXCOORD_0": 18
          },
          "indices": 19,
          "material": 4,
          "mode": 4
        }
      ]
    },
    {
      "name": "Object_5",
      "primitives": [
        {
          "attributes": {
            "NORMAL": 21,
            "POSITION": 20,
            "TEXCOORD_0": 22
          },
          "indices": 23,
          "material": 5,
          "mode": 4
        }
      ]
    }
  ],
  "nodes": [
    {
      "children": [
        1
      ],
      "matrix": [
        1.0,
        0.0,
        0.0,
        0.0,
        0.0,
        2.220446049250313e-16,
        -1.0,
        0.0,
        0.0,
        1.0,
        2.220446049250313e-16,
        0.0,
        0.0,
        0.0,
        0.0,
        1.0
      ],
      "name": "Sketchfab_model"
    },
    {
      "children": [
        2
      ],
      "name": "root"
    },
    {
      "children": [
        3,
        5
      ],
      "matrix": [
        1.0,
        0.0,
        0.0,
        0.0,
        0.0,
        2.220446049250313e-16,
        1.0,
        0.0,
        0.0,
        -1.0,
        2.220446049250313e-16,
        0.0,
        0.0,
        0.0,
        0.0,
        1.0
      ],
      "name": "GLTF_SceneRootNode"
    },
    {
      "children": [
        4
      ],
      "matrix": [
        0.45190873742103577,
        0.0,
        0.0,
        0.0,
        0.0,
        0.45190873742103577,
        0.0,
        0.0,
        0.0,
        0.0,
        0.45190873742103577,
        0.0,
        0.0,
        0.0,
        0.0,
        1.0
      ],
      "name": "Sphere_0"
    },
    {
      "mesh": 0,
      "name": "Object_4"
    },
    {
      "children": [
        6,
        7,
        8,
        9,
        10
      ],
      "name": "BezierCurve.001_1"
    },
    {
      "mesh": 1,
      "name": "Object_6"
    },
    {
      "mesh": 2,
      "name": "Object_7"
    },
    {
      "mesh": 3,
      "name": "Object_8"
    },
    {
      "mesh": 4,
      "name": "Object_9"
    },
    {
      "mesh": 5,
      "name": "Object_10"
    }
  ],
  "samplers": [
    {
      "magFilter": 9729,
      "minFilter": 9987,
      "wrapS": 10497,
      "wrapT": 10497
    }
  ],
  "scene": 0,
  "scenes": [
    {
      "name": "Sketchfab_Scene",
      "nodes": [
        0
      ]
    }
  ],
  "textures": [
    {
      "sampler": 0,
      "source": 0
    }
  ]
}
