<svg width="1117" height="660" viewBox="0 0 1117 660" fill="none" xmlns="http://www.w3.org/2000/svg">
<path d="M72.916 162.6V39.6H150.916V170.1C150.916 175.2 152.716 177 157.216 177C161.416 177 162.916 175.2 162.916 170.1V39.6H240.916V162.9C240.916 219.9 217.216 243 158.716 243C98.716 243 72.916 218.7 72.916 162.6ZM296.369 240V39.6H374.369V178.8H427.769V240H296.369ZM483.961 240V99.9H447.061V39.6H598.861V99.9H561.961V240H483.961ZM744.771 240L735.471 173.7H725.571L733.671 240H652.971V39.6H743.571C798.471 39.6 816.471 62.7 816.471 105.3C816.471 130.5 810.171 149.4 794.271 161.1L798.471 180.6H815.871V240H744.771ZM725.871 123H733.371C740.271 123 741.471 119.7 741.471 111.9C741.471 104.7 740.571 101.7 733.971 101.7H725.871V123ZM866.029 240L903.529 39.6H1006.43L1044.23 240H962.029L961.429 193.5H949.429L948.829 240H866.029ZM950.929 99.3L950.329 141H960.529L959.929 99.3H950.929ZM122.391 422.6H132.891L133.791 359.6H230.991V560H152.991L161.091 472.7H149.991L141.591 560H109.191L100.791 473.3H90.5914L97.1914 560H19.1914V359.6H121.491L122.391 422.6ZM283.52 560L321.02 359.6H423.92L461.72 560H379.52L378.92 513.5H366.92L366.32 560H283.52ZM368.42 419.3L367.82 461H378.02L377.42 419.3H368.42ZM595.974 413.3H604.974L607.074 359.6H687.774L655.674 458L690.774 560H607.074L604.974 504.2H595.974L593.874 560H509.574L544.374 458L512.574 359.6H593.874L595.974 413.3ZM743.352 560V359.6H867.252V422.6H809.352V433.7H856.452V487.7H809.352V497H867.252V560H743.352ZM922.824 560V359.6H1007.72C1073.42 359.6 1097.72 386.9 1097.72 458.3C1097.72 532.4 1071.62 560 1007.72 560H922.824ZM1000.22 502.4H1001.12C1012.82 502.4 1016.72 492.5 1016.72 461C1016.72 432.2 1013.42 423.2 1002.32 423.2H1000.22V502.4Z" fill="#5EF6FF"/>
<g filter="url(#filter0_f_180_78)">
<path d="M72.916 162.6V39.6H150.916V170.1C150.916 175.2 152.716 177 157.216 177C161.416 177 162.916 175.2 162.916 170.1V39.6H240.916V162.9C240.916 219.9 217.216 243 158.716 243C98.716 243 72.916 218.7 72.916 162.6ZM296.369 240V39.6H374.369V178.8H427.769V240H296.369ZM483.961 240V99.9H447.061V39.6H598.861V99.9H561.961V240H483.961ZM744.771 240L735.471 173.7H725.571L733.671 240H652.971V39.6H743.571C798.471 39.6 816.471 62.7 816.471 105.3C816.471 130.5 810.171 149.4 794.271 161.1L798.471 180.6H815.871V240H744.771ZM725.871 123H733.371C740.271 123 741.471 119.7 741.471 111.9C741.471 104.7 740.571 101.7 733.971 101.7H725.871V123ZM866.029 240L903.529 39.6H1006.43L1044.23 240H962.029L961.429 193.5H949.429L948.829 240H866.029ZM950.929 99.3L950.329 141H960.529L959.929 99.3H950.929ZM122.391 422.6H132.891L133.791 359.6H230.991V560H152.991L161.091 472.7H149.991L141.591 560H109.191L100.791 473.3H90.5914L97.1914 560H19.1914V359.6H121.491L122.391 422.6ZM283.52 560L321.02 359.6H423.92L461.72 560H379.52L378.92 513.5H366.92L366.32 560H283.52ZM368.42 419.3L367.82 461H378.02L377.42 419.3H368.42ZM595.974 413.3H604.974L607.074 359.6H687.774L655.674 458L690.774 560H607.074L604.974 504.2H595.974L593.874 560H509.574L544.374 458L512.574 359.6H593.874L595.974 413.3ZM743.352 560V359.6H867.252V422.6H809.352V433.7H856.452V487.7H809.352V497H867.252V560H743.352ZM922.824 560V359.6H1007.72C1073.42 359.6 1097.72 386.9 1097.72 458.3C1097.72 532.4 1071.62 560 1007.72 560H922.824ZM1000.22 502.4H1001.12C1012.82 502.4 1016.72 492.5 1016.72 461C1016.72 432.2 1013.42 423.2 1002.32 423.2H1000.22V502.4Z" fill="#5EF6FF"/>
</g>
<defs>
<filter id="filter0_f_180_78" x="0.391407" y="20.8001" width="1116.13" height="558" filterUnits="userSpaceOnUse" color-interpolation-filters="sRGB">
<feFlood flood-opacity="0" result="BackgroundImageFix"/>
<feBlend mode="normal" in="SourceGraphic" in2="BackgroundImageFix" result="shape"/>
<feGaussianBlur stdDeviation="9.4" result="effect1_foregroundBlur_180_78"/>
</filter>
</defs>
</svg>
